PathFileType	4	(X/Y/Z)	c:/Users/goper/Files/vsCode/490R/osim_files/C05/C05_SSWS_04.trc
DataRate	CameraRate	NumFrames	NumMarkers	Units                	OrigDataRate	OrigDataStartFrame	OrigNumFrames
250.00	250.00	5	36	mm	250.0	2216	3545
                Frame#	Time	LPSIS			LASIS			LTH1			LTH2			LTH3			LTH4			LLFE			LMFE			LSH1			LSH2			LSH3			LSH4			LLMAL			LMMAL			LCAL			LMTP5			LTOE			LMTP1			RPSIS			RASIS			RTH1			RTH2			RTH3			RTH4			RLFE			RMFE			RSH1			RSH2			RSH3			RSH4			RLMAL			RMMAL			RCAL			RMTP1			RTOE			RMTP5		
		X1	Y1	Z1	X2	Y2	Z2	X3	Y3	Z3	X4	Y4	Z4	X5	Y5	Z5	X6	Y6	Z6	X7	Y7	Z7	X8	Y8	Z8	X9	Y9	Z9	X10	Y10	Z10	X11	Y11	Z11	X12	Y12	Z12	X13	Y13	Z13	X14	Y14	Z14	X15	Y15	Z15	X16	Y16	Z16	X17	Y17	Z17	X18	Y18	Z18	X19	Y19	Z19	X20	Y20	Z20	X21	Y21	Z21	X22	Y22	Z22	X23	Y23	Z23	X24	Y24	Z24	X25	Y25	Z25	X26	Y26	Z26	X27	Y27	Z27	X28	Y28	Z28	X29	Y29	Z29	X30	Y30	Z30	X31	Y31	Z31	X32	Y32	Z32	X33	Y33	Z33	X34	Y34	Z34	X35	Y35	Z35	X36	Y36	Z36

2216	8.86000	488.65323	1018.49811	270.44208	298.43753	972.21759	347.15674	473.38748	672.84167	370.25806	474.98413	610.59229	359.39230	397.33902	663.54456	370.98111	408.96841	603.87579	359.62070	460.33633	501.36853	344.04544	458.69476	495.13406	226.87898	638.17572	406.31854	345.38013	661.18042	369.19116	340.46332	589.26471	366.66983	359.43756	619.59692	335.93195	351.54144	780.34637	166.23749	314.87680	747.39777	168.15126	232.67870	844.97144	178.97247	260.28360	705.95081	32.26274	328.78836	663.88318	49.99939	265.62482	676.28796	46.73808	217.63869	476.93033	1025.00671	162.55898	279.13861	992.33118	118.29144	265.95734	655.84967	62.96201	232.52460	604.36792	81.13175	198.92313	692.54211	75.99985	176.35590	635.77216	91.59289	0.00000	0.00000	0.00000	163.73645	541.56793	109.70043	208.84013	370.49442	80.21526	196.37213	324.44400	85.97301	149.74306	379.29596	93.19283	145.65450	332.91754	97.17382	147.71069	97.84243	130.30684	127.88634	111.64098	215.84993	207.55801	69.89336	179.86348	-6.81987	50.89859	210.66319	-26.86233	78.31741	163.97609	18.19918	39.05019	102.28565
2217	8.86400	483.04437	1018.77722	270.42154	293.73688	972.44849	346.33585	466.63074	672.09973	369.97983	467.66266	609.82416	359.26248	390.42667	663.35132	370.91077	401.56436	603.52032	359.65549	452.20227	500.65695	344.24454	449.98291	494.00034	227.10051	630.50421	407.52377	345.59192	654.15131	370.90921	340.79425	582.27216	367.44052	359.85626	612.98969	337.07913	351.95486	776.06537	169.65041	315.62332	743.03912	170.78546	233.44261	840.04688	183.81419	261.13251	704.96680	33.50415	329.00516	662.61292	50.51841	265.72763	674.81055	47.54068	217.75203	471.61224	1025.59717	162.58218	276.61166	992.43951	117.29594	260.11243	657.19391	62.82968	226.73196	605.77765	80.88212	193.58681	694.22015	76.39503	170.68167	637.26678	92.16212	0.00000	0.00000	0.00000	159.00365	542.08759	109.73888	204.97363	371.15277	79.51134	192.88310	324.95572	85.45706	145.91176	379.38574	93.15871	142.19521	333.00586	97.18002	147.06062	97.81294	130.33673	127.41956	111.43599	215.88109	207.42215	70.08373	179.76428	-7.04882	49.93239	210.89308	-27.32140	77.22527	164.32053	17.79614	38.94494	102.05614
2218	8.86800	478.06122	1019.23828	270.37991	288.08469	972.77295	345.83359	459.67651	671.37958	369.65384	460.34653	609.07220	359.17282	383.39114	663.14160	370.86139	394.18237	603.19635	359.74875	444.07330	500.02078	344.52560	441.02008	492.86176	227.37997	622.94830	409.04553	345.90680	647.07898	372.62390	341.06717	575.18542	368.20914	360.27054	606.18866	338.19757	352.40457	771.48560	173.21814	316.38770	738.52637	173.56000	234.16704	834.95703	188.86047	261.90952	703.85760	34.89291	329.22906	661.50330	51.09537	265.79929	673.54956	48.29338	217.85651	466.41779	1026.18042	162.48676	270.18558	993.71118	116.63480	254.79137	658.39978	62.76985	221.25803	607.06085	80.64716	186.98996	695.09491	77.96256	165.32233	638.54242	92.51445	0.00000	0.00000	0.00000	154.71266	542.43835	109.71381	201.16618	371.75128	78.90217	189.33295	325.20636	84.80770	142.22772	379.47083	93.20850	138.86086	332.98907	97.26749	146.56186	97.83806	130.34439	126.99701	111.37421	216.00197	207.27876	70.24522	179.68643	-7.25003	48.97974	211.17509	-27.90950	76.07450	164.72507	17.53324	38.57328	102.12344
2219	8.87200	472.46359	1019.44940	270.33527	282.97897	973.13635	345.12793	452.72253	670.56232	369.46085	452.88297	608.26971	359.05899	376.44580	662.93896	370.89920	386.67557	602.80206	359.90720	435.84729	499.36667	344.89468	431.78281	491.66617	227.70961	615.03833	410.37949	346.17905	639.68787	374.35150	341.44983	567.80286	368.90344	360.68503	599.31805	339.38174	352.88715	766.64636	176.86371	317.12836	733.83594	176.48389	234.77293	829.67029	194.15398	262.76303	702.63794	36.50859	329.46909	659.93152	51.89566	266.02322	672.00714	49.60650	218.07219	461.30209	1026.69238	162.39630	265.21536	994.43945	115.99567	249.75020	659.43964	62.70681	216.13426	607.99780	80.44149	182.34924	696.36224	78.03145	159.43567	639.39716	93.02554	0.00000	0.00000	0.00000	150.93874	542.69666	109.63582	197.44232	372.19882	78.47112	186.13170	325.62204	84.51278	138.55392	379.44843	93.32620	135.69611	332.96481	97.43274	146.12552	97.82780	130.43593	126.20391	111.01587	216.38390	207.16586	70.35436	179.64664	-7.45343	47.98757	211.47681	-28.32317	74.94533	165.16559	17.20207	38.20346	102.22189
2220	8.87600	467.17697	1019.72375	270.29257	277.87674	973.33997	344.40515	445.62619	669.76855	369.18982	445.27408	607.41626	359.04028	371.56317	664.43860	373.76578	379.08835	602.45685	360.12076	427.31296	498.69080	345.19595	422.36215	490.48227	228.08070	606.92780	411.73645	346.46222	632.01630	375.97528	341.74442	560.26715	369.66364	361.15067	592.08521	340.45724	353.27151	761.58276	180.59377	317.80652	728.84436	179.36681	235.42763	824.09357	199.63730	263.63315	701.24066	38.34526	329.69238	658.26025	52.66405	266.25226	670.53693	50.93610	218.31194	456.11954	1027.17957	162.32826	261.05713	994.99902	115.65307	245.09615	660.30029	62.55305	211.49135	608.81793	80.15575	177.09891	696.82336	78.35811	155.82802	640.28754	92.29198	0.00000	0.00000	0.00000	146.35298	542.93982	109.60597	193.90939	372.63123	78.17684	183.00174	325.94574	84.35576	135.00021	379.38907	93.46315	132.58510	332.93292	97.59062	145.62329	97.83902	130.55342	125.81964	110.93734	216.67513	207.02888	70.42230	179.63724	-7.75684	47.00800	211.75842	-28.72546	73.85996	165.58794	16.89218	37.91216	102.31721
